# xmcd
#
# Track frame offsets:
#	150
#	13277
#	23867
#	37382
#	47892
#	62015
#	76062
#	87062
#	102415
#	117190
#
# Disc length: 1683 seconds
#
# Revision: 3
# Processed by: cddbd v1.5.1PL0 Copyright (c) Steve Scherf et al.
# Submitted via: dBpowerAMP V4.0
#
DISCID=7e06910a
DTITLE=Various Artist - AllAmerican;Capitol7-96584-2
DYEAR=1991
DGENRE=Country
TTITLE0=Fightin'SideOfMe,The(1970,MerleHaggard,Bakersfield,CA) - MerleHaggard,Bakersfield,CA
TTITLE1=OldGlory(CindyWalker;TexRitter,AKAWoodwardMauriceRitter,Murval,TX) - TexRitter,AKAWoodwardMauriceRitter,Murval,TX
TTITLE2=America,TheBeautiful(SWard,KatherineBates;TennesseeErnieFord,Bristol,TN) - TennesseeErnieFord,Bristol,TN
TTITLE3=ThisLandIsYourLand(WoodyGuthrie;GlenCampbell,Delight,AR) - GlenCampbell,Delight,AR
TTITLE4=PledgeOfAllegiance,The(FrancisBellamy;addltextJohnMitchum;KennethFNelson;TexRitter,AKAWoodwardMauriceRitter,Murval,TX) - TexRitter,AKAWoodwardMauriceRitter,Murval,TX
TTITLE5=OkieFromMuskogee(MHaggard,EddieBurris;1969,MerleHaggard,Bakersfield,CA) - MerleHaggard,Bakersfield,CA
TTITLE6=ThisIsMyCountry(AlJacobs,DonRaye;TennesseeErnieFord,Bristol,TN) - TennesseeErnieFord,Bristol,TN
TTITLE7=SoldAmerican(KinkyFriedman;GlenCampbell,Delight,AR) - GlenCampbell,Delight,AR
TTITLE8=America,OurLand(DianeFloyd,TommyFloyd;TexRitter,AKAWoodwardMauriceRitter,Murval,TX) - TexRitter,AKAWoodwardMauriceRitter,Murval,TX
TTITLE9=GodBlessAmerica(IrvingBerlin;TennesseeErnieFord,Bristol,TN) - Tennessee Ernie Ford
EXTD=more info\nMillenniumMusicProjectFormat, syntax as follows:\nTitle{Subtitle}[info](Lyricist;Composer;Date,Artist,Location)[info]\ncorrections to: windking3@yahoo.com
EXTT0=
EXTT1=
EXTT2=
EXTT3=
EXTT4=
EXTT5=
EXTT6=
EXTT7=
EXTT8=
EXTT9=
PLAYORDER=
